<mxfile host="app.diagrams.net" modified="2023-11-08T06:05:18.719Z" agent="Mozilla/5.0 (Windows NT 10.0; Win64; x64) AppleWebKit/537.36 (KHTML, like Gecko) Chrome/119.0.0.0 Safari/537.36 Edg/119.0.0.0" etag="JG_9yv_dsWVdbDjeyH2z" version="22.0.8" type="github">
  <diagram name="第 1 页" id="EZE1y0nEabGCO-7ae4F7">
    <mxGraphModel dx="956" dy="609" grid="1" gridSize="10" guides="1" tooltips="1" connect="1" arrows="1" fold="1" page="1" pageScale="1" pageWidth="827" pageHeight="1169" math="0" shadow="0">
      <root>
        <mxCell id="0" />
        <mxCell id="1" parent="0" />
        <mxCell id="XvlknHN8pUFhw5sS-KLo-2" style="edgeStyle=orthogonalEdgeStyle;rounded=0;orthogonalLoop=1;jettySize=auto;html=1;" edge="1" parent="1" source="ZX59vD8KczDdF2iJHPan-3" target="ZX59vD8KczDdF2iJHPan-26">
          <mxGeometry relative="1" as="geometry" />
        </mxCell>
        <mxCell id="ZX59vD8KczDdF2iJHPan-3" value="Zabbix Server" style="rounded=1;whiteSpace=wrap;html=1;fillColor=#fff2cc;strokeColor=#d6b656;" parent="1" vertex="1">
          <mxGeometry x="300" y="50" width="120" height="60" as="geometry" />
        </mxCell>
        <mxCell id="XvlknHN8pUFhw5sS-KLo-7" style="edgeStyle=orthogonalEdgeStyle;rounded=0;orthogonalLoop=1;jettySize=auto;html=1;entryX=0.5;entryY=0;entryDx=0;entryDy=0;" edge="1" parent="1" source="ZX59vD8KczDdF2iJHPan-4" target="ZX59vD8KczDdF2iJHPan-7">
          <mxGeometry relative="1" as="geometry" />
        </mxCell>
        <mxCell id="XvlknHN8pUFhw5sS-KLo-8" style="edgeStyle=orthogonalEdgeStyle;rounded=0;orthogonalLoop=1;jettySize=auto;html=1;" edge="1" parent="1" source="ZX59vD8KczDdF2iJHPan-4" target="ZX59vD8KczDdF2iJHPan-5">
          <mxGeometry relative="1" as="geometry" />
        </mxCell>
        <mxCell id="XvlknHN8pUFhw5sS-KLo-11" style="edgeStyle=orthogonalEdgeStyle;rounded=0;orthogonalLoop=1;jettySize=auto;html=1;exitX=0.5;exitY=1;exitDx=0;exitDy=0;" edge="1" parent="1" source="ZX59vD8KczDdF2iJHPan-4" target="ZX59vD8KczDdF2iJHPan-8">
          <mxGeometry relative="1" as="geometry" />
        </mxCell>
        <mxCell id="ZX59vD8KczDdF2iJHPan-4" value="dble" style="rounded=1;whiteSpace=wrap;html=1;fillColor=#fff2cc;strokeColor=#d6b656;" parent="1" vertex="1">
          <mxGeometry x="190" y="270" width="120" height="60" as="geometry" />
        </mxCell>
        <mxCell id="ZX59vD8KczDdF2iJHPan-5" value="主MySQL" style="rounded=1;whiteSpace=wrap;html=1;fillColor=#ffe6cc;strokeColor=#d79b00;" parent="1" vertex="1">
          <mxGeometry x="300" y="400" width="120" height="60" as="geometry" />
        </mxCell>
        <mxCell id="ZX59vD8KczDdF2iJHPan-7" value="从MySQL" style="rounded=1;whiteSpace=wrap;html=1;fillColor=#ffe6cc;strokeColor=#d79b00;" parent="1" vertex="1">
          <mxGeometry x="110" y="399" width="120" height="60" as="geometry" />
        </mxCell>
        <mxCell id="ZX59vD8KczDdF2iJHPan-8" value="从MySQL" style="rounded=1;whiteSpace=wrap;html=1;fillColor=#ffe6cc;strokeColor=#d79b00;" parent="1" vertex="1">
          <mxGeometry x="470" y="400" width="120" height="60" as="geometry" />
        </mxCell>
        <mxCell id="ZX59vD8KczDdF2iJHPan-13" value="MHA node" style="shape=loopLimit;whiteSpace=wrap;html=1;direction=west;strokeColor=#d79b00;shadow=0;fillColor=#ffe6cc;" parent="1" vertex="1">
          <mxGeometry x="120" y="459" width="100" height="30" as="geometry" />
        </mxCell>
        <mxCell id="ZX59vD8KczDdF2iJHPan-14" style="edgeStyle=orthogonalEdgeStyle;rounded=0;orthogonalLoop=1;jettySize=auto;html=1;exitX=0.5;exitY=0;exitDx=0;exitDy=0;" parent="1" source="ZX59vD8KczDdF2iJHPan-13" target="ZX59vD8KczDdF2iJHPan-13" edge="1">
          <mxGeometry relative="1" as="geometry" />
        </mxCell>
        <mxCell id="ZX59vD8KczDdF2iJHPan-15" value="MHA node" style="shape=loopLimit;whiteSpace=wrap;html=1;direction=west;fillColor=#ffe6cc;strokeColor=#d79b00;" parent="1" vertex="1">
          <mxGeometry x="480" y="460" width="100" height="30" as="geometry" />
        </mxCell>
        <mxCell id="ZX59vD8KczDdF2iJHPan-16" value="MHA node" style="shape=loopLimit;whiteSpace=wrap;html=1;direction=west;fillColor=#ffe6cc;strokeColor=#d79b00;" parent="1" vertex="1">
          <mxGeometry x="310" y="460" width="100" height="30" as="geometry" />
        </mxCell>
        <mxCell id="ZX59vD8KczDdF2iJHPan-22" style="edgeStyle=orthogonalEdgeStyle;rounded=0;orthogonalLoop=1;jettySize=auto;html=1;entryX=0.5;entryY=0;entryDx=0;entryDy=0;" parent="1" source="ZX59vD8KczDdF2iJHPan-17" target="ZX59vD8KczDdF2iJHPan-13" edge="1">
          <mxGeometry relative="1" as="geometry">
            <mxPoint x="160" y="490" as="targetPoint" />
          </mxGeometry>
        </mxCell>
        <mxCell id="ZX59vD8KczDdF2iJHPan-24" style="edgeStyle=orthogonalEdgeStyle;rounded=0;orthogonalLoop=1;jettySize=auto;html=1;entryX=0.5;entryY=0;entryDx=0;entryDy=0;" parent="1" source="ZX59vD8KczDdF2iJHPan-17" target="ZX59vD8KczDdF2iJHPan-16" edge="1">
          <mxGeometry relative="1" as="geometry" />
        </mxCell>
        <mxCell id="ZX59vD8KczDdF2iJHPan-32" style="edgeStyle=orthogonalEdgeStyle;rounded=0;orthogonalLoop=1;jettySize=auto;html=1;entryX=0.5;entryY=0;entryDx=0;entryDy=0;" parent="1" source="ZX59vD8KczDdF2iJHPan-17" target="ZX59vD8KczDdF2iJHPan-15" edge="1">
          <mxGeometry relative="1" as="geometry" />
        </mxCell>
        <mxCell id="ZX59vD8KczDdF2iJHPan-17" value="MHA&lt;br&gt;Manager&amp;nbsp;" style="shape=loopLimit;whiteSpace=wrap;html=1;direction=east;fillColor=#f8cecc;strokeColor=#b85450;" parent="1" vertex="1">
          <mxGeometry x="310" y="560" width="100" height="60" as="geometry" />
        </mxCell>
        <mxCell id="XvlknHN8pUFhw5sS-KLo-3" style="edgeStyle=orthogonalEdgeStyle;rounded=0;orthogonalLoop=1;jettySize=auto;html=1;exitX=0.5;exitY=1;exitDx=0;exitDy=0;entryX=0.5;entryY=0;entryDx=0;entryDy=0;" edge="1" parent="1" source="ZX59vD8KczDdF2iJHPan-26" target="ZX59vD8KczDdF2iJHPan-4">
          <mxGeometry relative="1" as="geometry" />
        </mxCell>
        <mxCell id="XvlknHN8pUFhw5sS-KLo-4" style="edgeStyle=orthogonalEdgeStyle;rounded=0;orthogonalLoop=1;jettySize=auto;html=1;exitX=0.5;exitY=1;exitDx=0;exitDy=0;" edge="1" parent="1" source="ZX59vD8KczDdF2iJHPan-26" target="XvlknHN8pUFhw5sS-KLo-1">
          <mxGeometry relative="1" as="geometry" />
        </mxCell>
        <mxCell id="ZX59vD8KczDdF2iJHPan-26" value="Keepalived" style="rounded=1;whiteSpace=wrap;html=1;fillColor=#ffe6cc;strokeColor=#d79b00;" parent="1" vertex="1">
          <mxGeometry x="145" y="140" width="430" height="60" as="geometry" />
        </mxCell>
        <mxCell id="XvlknHN8pUFhw5sS-KLo-12" style="edgeStyle=orthogonalEdgeStyle;rounded=0;orthogonalLoop=1;jettySize=auto;html=1;entryX=0.5;entryY=0;entryDx=0;entryDy=0;exitX=0.5;exitY=1;exitDx=0;exitDy=0;" edge="1" parent="1" source="XvlknHN8pUFhw5sS-KLo-1" target="ZX59vD8KczDdF2iJHPan-7">
          <mxGeometry relative="1" as="geometry" />
        </mxCell>
        <mxCell id="XvlknHN8pUFhw5sS-KLo-1" value="dble" style="rounded=1;whiteSpace=wrap;html=1;fillColor=#fff2cc;strokeColor=#d6b656;" vertex="1" parent="1">
          <mxGeometry x="430" y="270" width="120" height="60" as="geometry" />
        </mxCell>
        <mxCell id="XvlknHN8pUFhw5sS-KLo-14" value="写" style="text;html=1;align=center;verticalAlign=middle;resizable=0;points=[];autosize=1;strokeColor=none;fillColor=none;" vertex="1" parent="1">
          <mxGeometry x="315" y="370" width="40" height="30" as="geometry" />
        </mxCell>
        <mxCell id="XvlknHN8pUFhw5sS-KLo-15" value="读" style="text;html=1;align=center;verticalAlign=middle;resizable=0;points=[];autosize=1;strokeColor=none;fillColor=none;" vertex="1" parent="1">
          <mxGeometry x="490" y="368" width="40" height="30" as="geometry" />
        </mxCell>
        <mxCell id="XvlknHN8pUFhw5sS-KLo-16" value="读" style="text;html=1;align=center;verticalAlign=middle;resizable=0;points=[];autosize=1;strokeColor=none;fillColor=none;" vertex="1" parent="1">
          <mxGeometry x="175" y="368" width="40" height="30" as="geometry" />
        </mxCell>
      </root>
    </mxGraphModel>
  </diagram>
</mxfile>
